<?xml version="1.0" encoding="UTF-8"?>
<!DOCTYPE svg PUBLIC "-//W3C//DTD SVG 1.1//EN" "http://www.w3.org/Graphics/SVG/1.1/DTD/svg11.dtd">
<svg width="430mm" height="100mm" viewBox="0 0 43000 10000" version="1.1" xmlns="http://www.w3.org/2000/svg" xmlns:xlink="http://www.w3.org/1999/xlink" stroke-width="28.222" stroke-linejoin="round" xml:space="preserve">
 <path fill="rgb(255,255,255)" stroke="none" d="M 21500,10000 L 0,10000 0,0 43000,0 43000,10000 21500,10000 Z"/>
 <path fill="none" stroke="rgb(179,179,179)" stroke-linejoin="round" d="M 22739,8172 L 3339,8172 3339,399 42140,399 42140,8172 22739,8172 Z"/>
 <path fill="none" stroke="rgb(179,179,179)" stroke-linejoin="round" d="M 3339,398 L 3339,8171"/>
 <path fill="none" stroke="rgb(179,179,179)" stroke-linejoin="round" d="M 9547,398 L 9547,8171"/>
 <path fill="none" stroke="rgb(179,179,179)" stroke-linejoin="round" d="M 15755,398 L 15755,8171"/>
 <path fill="none" stroke="rgb(179,179,179)" stroke-linejoin="round" d="M 21962,398 L 21962,8171"/>
 <path fill="none" stroke="rgb(179,179,179)" stroke-linejoin="round" d="M 28171,398 L 28171,8171"/>
 <path fill="none" stroke="rgb(179,179,179)" stroke-linejoin="round" d="M 34379,398 L 34379,8171"/>
 <path fill="none" stroke="rgb(179,179,179)" stroke-linejoin="round" d="M 40587,398 L 40587,8171"/>
 <path fill="none" stroke="rgb(179,179,179)" stroke-linejoin="round" d="M 42140,8171 L 3339,8171"/>
 <path fill="none" stroke="rgb(179,179,179)" stroke-linejoin="round" d="M 42140,6616 L 3339,6616"/>
 <path fill="none" stroke="rgb(179,179,179)" stroke-linejoin="round" d="M 42140,5061 L 3339,5061"/>
 <path fill="none" stroke="rgb(179,179,179)" stroke-linejoin="round" d="M 42140,3507 L 3339,3507"/>
 <path fill="none" stroke="rgb(179,179,179)" stroke-linejoin="round" d="M 42140,1952 L 3339,1952"/>
 <path fill="none" stroke="rgb(179,179,179)" stroke-linejoin="round" d="M 42140,398 L 3339,398"/>
 <path fill="none" stroke="rgb(179,179,179)" stroke-linejoin="round" d="M 3339,8321 L 3339,8171"/>
 <path fill="none" stroke="rgb(179,179,179)" stroke-linejoin="round" d="M 3339,8321 L 3339,8171"/>
 <path fill="none" stroke="rgb(179,179,179)" stroke-linejoin="round" d="M 9547,8321 L 9547,8171"/>
 <path fill="none" stroke="rgb(179,179,179)" stroke-linejoin="round" d="M 9547,8321 L 9547,8171"/>
 <path fill="none" stroke="rgb(179,179,179)" stroke-linejoin="round" d="M 15755,8321 L 15755,8171"/>
 <path fill="none" stroke="rgb(179,179,179)" stroke-linejoin="round" d="M 15755,8321 L 15755,8171"/>
 <path fill="none" stroke="rgb(179,179,179)" stroke-linejoin="round" d="M 21962,8321 L 21962,8171"/>
 <path fill="none" stroke="rgb(179,179,179)" stroke-linejoin="round" d="M 21962,8321 L 21962,8171"/>
 <path fill="none" stroke="rgb(179,179,179)" stroke-linejoin="round" d="M 28171,8321 L 28171,8171"/>
 <path fill="none" stroke="rgb(179,179,179)" stroke-linejoin="round" d="M 28171,8321 L 28171,8171"/>
 <path fill="none" stroke="rgb(179,179,179)" stroke-linejoin="round" d="M 34379,8321 L 34379,8171"/>
 <path fill="none" stroke="rgb(179,179,179)" stroke-linejoin="round" d="M 34379,8321 L 34379,8171"/>
 <path fill="none" stroke="rgb(179,179,179)" stroke-linejoin="round" d="M 40587,8321 L 40587,8171"/>
 <path fill="none" stroke="rgb(179,179,179)" stroke-linejoin="round" d="M 40587,8321 L 40587,8171"/>
 <path fill="none" stroke="rgb(179,179,179)" stroke-linejoin="round" d="M 3339,8171 L 42140,8171"/>
 <path fill="none" stroke="rgb(179,179,179)" stroke-linejoin="round" d="M 3189,8171 L 3339,8171"/>
 <path fill="none" stroke="rgb(179,179,179)" stroke-linejoin="round" d="M 3189,8171 L 3339,8171"/>
 <path fill="none" stroke="rgb(179,179,179)" stroke-linejoin="round" d="M 3189,6616 L 3339,6616"/>
 <path fill="none" stroke="rgb(179,179,179)" stroke-linejoin="round" d="M 3189,6616 L 3339,6616"/>
 <path fill="none" stroke="rgb(179,179,179)" stroke-linejoin="round" d="M 3189,5061 L 3339,5061"/>
 <path fill="none" stroke="rgb(179,179,179)" stroke-linejoin="round" d="M 3189,5061 L 3339,5061"/>
 <path fill="none" stroke="rgb(179,179,179)" stroke-linejoin="round" d="M 3189,3507 L 3339,3507"/>
 <path fill="none" stroke="rgb(179,179,179)" stroke-linejoin="round" d="M 3189,3507 L 3339,3507"/>
 <path fill="none" stroke="rgb(179,179,179)" stroke-linejoin="round" d="M 3189,1952 L 3339,1952"/>
 <path fill="none" stroke="rgb(179,179,179)" stroke-linejoin="round" d="M 3189,1952 L 3339,1952"/>
 <path fill="none" stroke="rgb(179,179,179)" stroke-linejoin="round" d="M 3189,398 L 3339,398"/>
 <path fill="none" stroke="rgb(179,179,179)" stroke-linejoin="round" d="M 3189,398 L 3339,398"/>
 <path fill="none" stroke="rgb(179,179,179)" stroke-linejoin="round" d="M 3339,8171 L 3339,398"/>
 <path fill="none" stroke="rgb(0,69,134)" stroke-width="80" stroke-linejoin="round" d="M 3370,1925 L 3401,1935 3432,1965 3463,1975 3494,2034 3525,2003 3556,2009 3587,2012 3618,2016 3649,2016 3680,2045 3711,2041 3742,2044 3773,2045 3804,2028 3835,2032 3866,2046 3897,2046 3928,2047 3959,2057 3990,2057 4021,2114 4052,2114 4083,2114 4115,2133 4146,2115 4177,2115 4208,2099 4239,2176 4270,2103 4301,2104 4332,2104 4363,2140 4394,2134 4425,2134 4456,2130 4487,2140 4518,2123 4549,2133 4580,2130 4611,2131 4642,2133 4673,2133 4704,2133 4735,2133 4766,2133 4797,2133 4828,2134 4860,2143 4891,2143 4922,2143 4953,2184 4984,2184 5015,2187 5046,2187 5077,2502 5108,2682 5139,2567 5170,2690 5201,2690 5232,2631 5263,2706 5294,2708 5325,2706 5356,2713 5387,2714 5418,2714 5449,2714 5480,2714 5511,2706 5542,2706 5573,2750 5605,2753 5636,2753 5667,2713 5698,2713 5729,2746 5760,2714 5791,2714 5822,2714 5853,2703 5884,2528 5915,2607 5946,2641 5977,2611 6008,2645 6039,2645 6070,2603 6101,2602 6132,2633 6163,2625 6194,2594 6225,2665 6256,2602 6287,2602 6318,2552 6350,2695 6381,2697 6412,2735 6443,2753 6474,2753 6505,2753 6536,2757 6567,2797 6598,2831 6629,2883 6660,2883 6691,2883 6722,2883 6753,2906 6784,2906 6815,2911 6846,2915 6877,2912 6908,2883 6939,2883 6970,2877 7001,2845 7032,2750 7063,2750 7095,2901 7126,2784 7157,2826 7188,2797 7219,2787 7250,2743 7281,3120 7312,2662 7343,2771 7374,2771 7405,2771 7436,2888 7467,2772 7498,2772 7529,3385 7560,3406 7591,3406 7622,3410 7653,3416 7684,3416 7715,3214 7746,2700 7777,2696 7808,2809 7840,2809 7871,2841 7902,2841 7933,2841 7964,2841 7995,2894 8026,3026 8057,3026 8088,3026 8119,3031 8150,3066 8181,3066 8212,3036 8243,3107 8274,3036 8305,3036 8336,3046 8367,3128 8398,3049 8429,3036 8460,3039 8491,2965 8522,3083 8553,2983 8585,2985 8616,2965 8647,2952 8678,3460 8709,2982 8740,3721 8771,3018 8802,3020 8833,3020 8864,3001 8895,3127 8926,2880 8957,2944 8988,2889 9019,2820 9050,2864 9081,2774 9112,2830 9143,2927 9174,2787 9205,2762 9236,2772 9267,2825 9298,2970 9330,2970 9361,2970 9392,3003 9423,3151 9454,3209 9485,3209 9516,3772 9547,3772 9578,3772 9609,3794 9640,3794 9671,3794 9702,3852 9733,3810 9764,3898 9795,3889 9826,3889 9857,3853 9888,3955 9919,4166 9950,4190 9981,4001 10012,4001 10043,4001 10075,4017 10106,4017 10137,4017 10168,4017 10199,3915 10230,3710 10261,3822 10292,3837 10323,3837 10354,3833 10385,3801 10416,3817 10447,4117 10478,4104 10509,4080 10540,3850 10571,3850 10602,3864 10633,3864 10664,3864 10695,3864 10726,3850 10757,3832 10788,3821 10820,4130 10851,4130 10882,4193 10913,4193 10944,4244 10975,4416 11006,4416 11037,4494 11068,4587 11099,4587 11130,4618 11161,4638 11192,4691 11223,4747 11254,4747 11285,4747 11316,4855 11347,4809 11378,5442 11409,4728 11440,4748 11471,4722 11502,4705 11533,4711 11565,4650 11596,4722 11627,4722 11658,4722 11689,4722 11720,4523 11751,4429 11782,4485 11813,4639 11844,4639 11875,4639 11906,4351 11937,4375 11968,4370 11999,4373 12030,4370 12061,4280 12092,4280 12123,4267 12154,4307 12185,4326 12216,4326 12247,4315 12278,4363 12310,4406 12341,4709 12372,4709 12403,4933 12434,5025 12465,5824 12496,5538 12527,5859 12558,5859 12589,5859 12620,5859 12651,5895 12682,5903 12713,5910 12744,5945 12775,5945 12806,6622 12837,6246 12868,5952 12899,5955 12930,5798 12961,5216 12992,4830 13023,4796 13055,4878 13086,4301 13117,4429 13148,4184 13179,4183 13210,4122 13241,4013 13272,6037 13303,5403 13334,5693 13365,5364 13396,5364 13427,5821 13458,5821 13489,5754 13520,4182 13551,6037 13582,5841 13613,3853 13644,4242 13675,4242 13706,4353 13737,4477 13768,4033 13800,4329 13831,4316 13862,5629 13893,5629 13924,5629 13955,5629 13986,5629 14017,5725 14048,5757 14079,5757 14110,6231 14141,6221 14172,6174 14203,6044 14234,6256 14265,6262 14296,6440 14327,6440 14358,6278 14389,6282 14420,6264 14451,6234 14482,5951 14513,5951 14545,5602 14576,5602 14607,5846 14638,5207 14669,5298 14700,5251 14731,5327 14762,5323 14793,5207 14824,5207 14855,5196 14886,5190 14917,3974 14948,5259 14979,3939 15010,3995 15041,3939 15072,3955 15103,3939 15134,3958 15165,3976 15196,3818 15227,4147 15258,4147 15290,4429 15321,4449 15352,4452 15383,4518 15414,4577 15445,4589 15476,4633 15507,4664 15538,4669 15569,4676 15600,4770 15631,4770 15662,4835 15693,4829 15724,4829 15755,4847 15786,4847 15817,4919 15848,4863 15879,4850 15910,4869 15941,5025 15972,4978 16003,4950 16035,4950 16066,4953 16097,4953 16128,4953 16159,4953 16190,4966 16221,4966 16252,4953 16283,4953 16314,4962 16345,4955 16376,4903 16407,4903 16438,4903 16469,4903 16500,4949 16531,4906 16562,4903 16593,4900 16624,5039 16655,5039 16686,5039 16717,5039 16748,5039 16780,5039 16811,5039 16842,5039 16873,5039 16904,5052 16935,5064 16966,5064 16997,5076 17028,5101 17059,5126 17090,5126 17121,5188 17152,5216 17183,5247 17214,5266 17245,5266 17276,5266 17307,5316 17338,5279 17369,5356 17400,5363 17431,5282 17462,5291 17493,5282 17525,5282 17556,5278 17587,5266 17618,5275 17649,5229 17680,5247 17711,5247 17742,5247 17773,5247 17804,5325 17835,5325 17866,5602 17897,5602 17928,5602 17959,5363 17990,5363 18021,6314 18052,6314 18083,6314 18114,6348 18145,6348 18176,5398 18207,5418 18238,5201 18270,5356 18301,5356 18332,5356 18363,5381 18394,5419 18425,5515 18456,5537 18487,5562 18518,5562 18549,5580 18580,5593 18611,5612 18642,5612 18673,5612 18704,5689 18735,5705 18766,5714 18797,5705 18828,5705 18859,5652 18890,5689 18921,5689 18952,5633 18983,5612 19015,5620 19046,5689 19077,5689 19108,5689 19139,5689 19170,5695 19201,5988 19232,5543 19263,5538 19294,5553 19325,5538 19356,5251 19387,5484 19418,5530 19449,5459 19480,5397 19511,5397 19542,5397 19573,5397 19604,5397 19635,5459 19666,5459 19697,5462 19728,4710 19760,4710 19791,4754 19822,4754 19853,4754 19884,4773 19915,4776 19946,4779 19977,4779 20008,4779 20039,4779 20070,4779 20101,4779 20132,4779 20163,4779 20194,4779 20225,4779 20256,4779 20287,4779 20318,4782 20349,4779 20380,4782 20411,4782 20442,4782 20473,4782 20505,4782 20536,4782 20567,4782 20598,4782 20629,4782 20660,4782 20691,4782 20722,4782 20753,4785 20784,4782 20815,4785 20846,4816 20877,4816 20908,4782 20939,4782 20970,4782 21001,4782 21032,4810 21063,4782 21094,4782 21125,4782 21156,4782 21187,4801 21218,4782 21250,4782 21281,4986 21312,4986 21343,4986 21374,4986 21405,4986 21436,4986 21467,4986 21498,4986 21528,4986 21559,4986 21590,4986 21621,4986 21652,4990 21683,4990 21714,4990 21745,4990 21776,4992 21807,4990 21838,5019 21869,4990 21900,4990 21931,4990 21962,4990 21994,4990 22025,4990 22056,4990 22087,4990 22118,4990 22149,5001 22180,5001 22211,5001 22242,5001 22273,5001 22304,5001 22335,5001 22366,5001 22397,5001 22428,5001 22459,5001 22490,5001 22521,5017 22552,5017 22583,5017 22614,5017 22645,5017 22676,5032 22707,5032 22739,5060 22770,5060 22801,5060 22832,5076 22863,5076 22894,5076 22925,5092 22956,5126 22987,5126 23018,5126 23049,5151 23080,5151 23111,5191 23142,5191 23173,5191 23204,5216 23235,5250 23266,5250 23297,5250 23328,5228 23359,5228 23390,5228 23421,5266 23452,5254 23483,5235 23515,5212 23546,5216 23577,5185 23608,5188 23639,5145 23670,5273 23701,5166 23732,5138 23763,5120 23794,5120 23825,5126 23856,5126 23887,5129 23918,5135 23949,5129 23980,5123 24011,5122 24042,5132 24073,5132 24104,5126 24135,5126 24166,5126 24197,5123 24228,5123 24260,5132 24291,5132 24322,5151 24353,5151 24384,5160 24415,5163 24446,5163 24477,5163 24508,5163 24539,5250 24570,5250 24601,5250 24632,5412 24663,5412 24694,5449 24725,5449 24756,5480 24787,5667 24818,5667 24849,5667 24880,5636 24911,5412 24942,5297 24973,5271 25005,5305 25036,5290 25067,5290 25098,5290 25129,5312 25160,5312 25191,5271 25222,5271 25253,5265 25284,5265 25315,5355 25346,6391 25377,6435 25408,6435 25439,6435 25470,6475 25501,6616 25532,6616 25563,6634 25594,6628 25625,6680 25656,7181 25687,6655 25718,6655 25750,6932 25781,6964 25812,6964 25843,7017 25874,7017 25905,7100 25936,7100 25967,7100 25998,7138 26029,7138 26060,7567 26091,7567 26122,7567 26153,7629 26184,7760 26215,7629 26246,7667 26277,7667 26308,7651 26339,7695 26370,7716 26401,7720 26432,7695 26463,7695 26495,7695 26526,7695 26557,7695 26588,7707 26619,7704 26650,7738 26681,7704 26712,7707 26743,7704 26774,7704 26805,7660 26836,7732 26867,7732 26898,7732 26929,7732 26960,7732 26991,7732 27022,7691 27053,7695 27084,7695 27115,7670 27146,7679 27177,7676 27208,7676 27240,7676 27271,7689 27302,7682 27333,7732 27364,7748 27395,7748 27426,7748 27457,7775 27488,7781 27519,7787 27550,7803 27581,7803 27612,7803 27643,7822 27674,7822 27705,7878 27736,7852 27767,7852 27798,7852 27829,7863 27860,7852 27891,7847 27922,7831 27953,7831 27985,7835 28016,7888 28047,7894 28078,7894 28109,7863 28140,7861 28171,7852 28202,7838 28233,7853 28264,7856 28295,7832 28326,7825 28357,7853 28388,7853 28419,7832 28450,7838 28481,7832 28512,7900 28543,7900 28574,7900 28605,7884 28636,7838 28667,7850 28698,7850 28730,7850 28761,7850 28792,7856 28823,7856 28854,7863 28885,7863 28916,7869 28947,7869 28978,7875 29009,7875 29040,7875 29071,7875 29102,7881 29133,7897 29164,7897 29195,7897 29226,7906 29257,7903 29288,7912 29319,7925 29350,7925 29381,7937 29412,7943 29443,7943 29475,7981 29506,7981 29537,7916 29568,7953 29599,7953 29630,7953 29661,7953 29692,7953 29723,7965 29754,7953 29785,7934 29816,7934 29847,7934 29878,7956 29909,7959 29940,7956 29971,7931 30002,7931 30033,7925 30064,7925 30095,7900 30126,7909 30157,7912 30188,7953 30220,7953 30251,7953 30282,7953 30313,7959 30344,7959 30375,7959 30406,7993 30437,7993 30468,7993 30499,7993 30530,7993 30561,7993 30592,7993 30623,7993 30654,7993 30685,7993 30716,7993 30747,7993 30778,7993 30809,7993 30840,7993 30871,7993 30902,7999 30933,7999 30965,7993 30996,7996 31027,7993 31058,7993 31089,7996 31120,7996 31151,7993 31182,7993 31213,7996 31244,7996 31275,7996 31306,7996 31337,7996 31368,7996 31399,7993 31430,7990 31461,7993 31492,7993 31523,7993 31554,7993 31585,7993 31616,7993 31647,7993 31678,7993 31710,7993 31741,7993 31772,7993 31803,7993 31834,7993 31865,7993 31896,7993 31927,7993 31958,7993 31989,7993 32020,7993 32051,7993 32082,7993 32113,7993 32144,7993 32175,7993 32206,7993 32237,7993 32268,7993 32299,7993 32330,7996 32361,7996 32392,7996 32423,7996 32455,7996 32486,7996 32517,7996 32548,7996 32579,7996 32610,7996 32641,7996 32672,7996 32703,7996 32734,7996 32765,7996 32796,7996 32827,7996 32858,7996 32889,7996 32920,7996 32951,7996 32982,7996 33013,7996 33044,7996 33075,7996 33106,7996 33137,7996 33168,7996 33200,7996 33231,7996 33262,7996 33293,7996 33324,7996 33355,7996 33386,7996 33417,7996 33448,7996 33479,7996 33510,7996 33541,7996 33572,7996 33603,7996 33634,7996 33665,7996 33696,7996 33727,7996 33758,7996 33789,7996 33820,7996 33851,7996 33882,7996 33913,7996 33945,7996 33976,7996 34007,7996 34038,7996 34069,7996 34100,7996 34131,7999 34162,7999 34193,7999 34224,7999 34255,8003 34286,8003 34317,7999 34348,7999 34379,7998 34410,7996 34441,7996 34472,7996 34503,7996 34534,7996 34565,7996 34596,7996 34627,7996 34658,7996 34690,7996 34721,7996 34752,7996 34783,7996 34814,7996 34845,7996 34876,7996 34907,7996 34938,7996 34969,7996 35000,7996 35031,7996 35062,7996 35093,7996 35124,7996 35155,7996 35186,7996 35217,7996 35248,7996 35279,7996 35310,7996 35341,7999 35372,7996 35403,7996 35435,7996 35466,7996 35497,7996 35528,7996 35559,7996 35590,7996 35621,7996 35652,7996 35683,7996 35714,8003 35745,8003 35776,7996 35807,7996 35838,7996 35869,7996 35900,7996 35931,7996 35962,7996 35993,7996 36024,7996 36055,7996 36086,7996 36117,7996 36148,7996 36180,7996 36211,7996 36242,7996 36273,7996 36304,7996 36335,7996 36366,7996 36397,7996 36428,7996 36459,7996 36490,7996 36521,7996 36552,7996 36583,7996 36614,7996 36645,7996 36676,7996 36707,7996 36738,7996 36769,7996 36800,7996 36831,7996 36862,7996 36893,7996 36925,7996 36956,7996 36987,7996 37018,7996 37049,7996 37080,7996 37111,7996 37142,7996 37173,7996 37204,7996 37235,7993 37266,8003 37297,7993 37328,7996 37359,7996 37390,7996 37421,7996 37452,7996 37483,7996 37514,7996 37545,7996 37576,7996 37607,7996 37638,7996 37670,7996 37701,7996 37732,7996 37763,7996 37794,7996 37825,7996 37856,7996 37887,7996 37918,7996 37949,7996 37980,7996 38011,7996 38042,7996 38073,7996 38104,7996 38135,7996 38166,7996 38197,7996 38228,7996 38259,7999 38290,7999 38321,7999 38352,7999 38383,7999 38415,7999 38446,7999 38477,7999 38508,8003 38539,8003 38570,7999 38601,7999 38632,8003 38663,8003 38694,8003 38725,8003 38756,8003 38787,7999 38818,7999 38849,8003 38880,7999 38911,7999 38942,8003 38973,7999 39004,8003 39035,8003 39066,8006 39097,8006 39128,8006 39160,8006 39191,8018 39222,8018 39253,8018 39284,8018 39315,8018 39346,8018 39377,8018 39408,8018 39439,8018 39470,8018 39501,8018 39532,8018 39563,8018 39594,8018 39625,8018 39656,8018 39687,8018 39718,8018 39749,8018 39780,8018 39811,8018 39842,8018 39873,8018 39905,8018 39936,8018 39967,8055 39998,8018 40029,8021 40060,8018 40091,8018 40122,8018 40153,8018 40184,8021 40215,8018 40246,8021 40277,8021 40308,8021 40339,8021 40370,8021 40401,8021 40432,8021 40463,8021 40494,8021 40525,8021 40556,8021 40587,8021 40618,8021 40650,8021 40681,8021 40712,8021 40743,8021 40774,8021 40805,8021 40836,8021 40867,8024 40898,8024 40929,8024 40960,8024 40991,8024 41022,8024 41053,8024 41084,8024 41115,8024 41146,8024 41177,8024 41208,8024 41239,8024 41270,8024 41301,8024 41332,8024 41363,8024 41395,8024 41426,8024 41457,8027 41488,8024 41519,8024 41550,8024 41581,8027 41612,8027 41643,8027 41674,8024 41705,8024 41736,8024 41767,8024 41798,8024 41829,8024 41860,8024 41891,8027 41922,8071"/>
 <text class="TextShape"><tspan class="TextParagraph" font-family="Liberation Sans, sans-serif" font-size="353px" font-weight="400"><tspan class="TextPosition" x="3246" y="8739"><tspan fill="rgb(0,0,0)" stroke="none">0</tspan></tspan></tspan></text>
 <text class="TextShape"><tspan class="TextParagraph" font-family="Liberation Sans, sans-serif" font-size="353px" font-weight="400"><tspan class="TextPosition" x="9269" y="8739"><tspan fill="rgb(0,0,0)" stroke="none">200</tspan></tspan></tspan></text>
 <text class="TextShape"><tspan class="TextParagraph" font-family="Liberation Sans, sans-serif" font-size="353px" font-weight="400"><tspan class="TextPosition" x="15477" y="8739"><tspan fill="rgb(0,0,0)" stroke="none">400</tspan></tspan></tspan></text>
 <text class="TextShape"><tspan class="TextParagraph" font-family="Liberation Sans, sans-serif" font-size="353px" font-weight="400"><tspan class="TextPosition" x="21685" y="8739"><tspan fill="rgb(0,0,0)" stroke="none">600</tspan></tspan></tspan></text>
 <text class="TextShape"><tspan class="TextParagraph" font-family="Liberation Sans, sans-serif" font-size="353px" font-weight="400"><tspan class="TextPosition" x="27894" y="8739"><tspan fill="rgb(0,0,0)" stroke="none">800</tspan></tspan></tspan></text>
 <text class="TextShape"><tspan class="TextParagraph" font-family="Liberation Sans, sans-serif" font-size="353px" font-weight="400"><tspan class="TextPosition" x="34009" y="8739"><tspan fill="rgb(0,0,0)" stroke="none">1000</tspan></tspan></tspan></text>
 <text class="TextShape"><tspan class="TextParagraph" font-family="Liberation Sans, sans-serif" font-size="353px" font-weight="400"><tspan class="TextPosition" x="40217" y="8739"><tspan fill="rgb(0,0,0)" stroke="none">1200</tspan></tspan></tspan></text>
 <text class="TextShape"><tspan class="TextParagraph" font-family="Liberation Sans, sans-serif" font-size="353px" font-weight="400"><tspan class="TextPosition" x="2428" y="8292"><tspan fill="rgb(0,0,0)" stroke="none">0.00</tspan></tspan></tspan></text>
 <text class="TextShape"><tspan class="TextParagraph" font-family="Liberation Sans, sans-serif" font-size="353px" font-weight="400"><tspan class="TextPosition" x="2057" y="6737"><tspan fill="rgb(0,0,0)" stroke="none">500.00</tspan></tspan></tspan></text>
 <text class="TextShape"><tspan class="TextParagraph" font-family="Liberation Sans, sans-serif" font-size="353px" font-weight="400"><tspan class="TextPosition" x="1872" y="5182"><tspan fill="rgb(0,0,0)" stroke="none">1000.00</tspan></tspan></tspan></text>
 <text class="TextShape"><tspan class="TextParagraph" font-family="Liberation Sans, sans-serif" font-size="353px" font-weight="400"><tspan class="TextPosition" x="1872" y="3627"><tspan fill="rgb(0,0,0)" stroke="none">1500.00</tspan></tspan></tspan></text>
 <text class="TextShape"><tspan class="TextParagraph" font-family="Liberation Sans, sans-serif" font-size="353px" font-weight="400"><tspan class="TextPosition" x="1872" y="2072"><tspan fill="rgb(0,0,0)" stroke="none">2000.00</tspan></tspan></tspan></text>
 <text class="TextShape"><tspan class="TextParagraph" font-family="Liberation Sans, sans-serif" font-size="353px" font-weight="400"><tspan class="TextPosition" x="1872" y="518"><tspan fill="rgb(0,0,0)" stroke="none">2500.00</tspan></tspan></tspan></text>
 <text class="TextShape"><tspan class="TextParagraph" font-family="Liberation Sans, sans-serif" font-size="318px" font-weight="400"><tspan class="TextPosition" x="21225" y="9406"><tspan fill="rgb(0,0,0)" stroke="none">generation</tspan></tspan></tspan></text>
 <text class="TextShape" transform="rotate(-90 837 6308)"><tspan class="TextParagraph" font-family="Liberation Sans, sans-serif" font-size="318px" font-weight="400"><tspan class="TextPosition" x="837" y="6308"><tspan fill="rgb(0,0,0)" stroke="none">best fitness in generation</tspan></tspan></tspan></text>
</svg>