<?xml version="1.0" encoding="UTF-8"?>
<!DOCTYPE svg PUBLIC "-//W3C//DTD SVG 1.1//EN" "http://www.w3.org/Graphics/SVG/1.1/DTD/svg11.dtd">
<svg width="430mm" height="100mm" viewBox="0 0 43000 10000" version="1.1" xmlns="http://www.w3.org/2000/svg" xmlns:xlink="http://www.w3.org/1999/xlink" stroke-width="28.222" stroke-linejoin="round" xml:space="preserve">
 <path fill="rgb(255,255,255)" stroke="none" d="M 21500,10001 L 0,10001 0,1 43000,1 43000,10001 21500,10001 Z"/>
 <path fill="none" stroke="rgb(179,179,179)" stroke-linejoin="round" d="M 22599,8173 L 3339,8173 3339,400 41860,400 41860,8173 22599,8173 Z"/>
 <path fill="none" stroke="rgb(179,179,179)" stroke-linejoin="round" d="M 3339,399 L 3339,8172"/>
 <path fill="none" stroke="rgb(179,179,179)" stroke-linejoin="round" d="M 7619,399 L 7619,8172"/>
 <path fill="none" stroke="rgb(179,179,179)" stroke-linejoin="round" d="M 11899,399 L 11899,8172"/>
 <path fill="none" stroke="rgb(179,179,179)" stroke-linejoin="round" d="M 16179,399 L 16179,8172"/>
 <path fill="none" stroke="rgb(179,179,179)" stroke-linejoin="round" d="M 20459,399 L 20459,8172"/>
 <path fill="none" stroke="rgb(179,179,179)" stroke-linejoin="round" d="M 24739,399 L 24739,8172"/>
 <path fill="none" stroke="rgb(179,179,179)" stroke-linejoin="round" d="M 29019,399 L 29019,8172"/>
 <path fill="none" stroke="rgb(179,179,179)" stroke-linejoin="round" d="M 33299,399 L 33299,8172"/>
 <path fill="none" stroke="rgb(179,179,179)" stroke-linejoin="round" d="M 37579,399 L 37579,8172"/>
 <path fill="none" stroke="rgb(179,179,179)" stroke-linejoin="round" d="M 41860,399 L 41860,8172"/>
 <path fill="none" stroke="rgb(179,179,179)" stroke-linejoin="round" d="M 41860,8172 L 3339,8172"/>
 <path fill="none" stroke="rgb(179,179,179)" stroke-linejoin="round" d="M 41860,6617 L 3339,6617"/>
 <path fill="none" stroke="rgb(179,179,179)" stroke-linejoin="round" d="M 41860,5062 L 3339,5062"/>
 <path fill="none" stroke="rgb(179,179,179)" stroke-linejoin="round" d="M 41860,3508 L 3339,3508"/>
 <path fill="none" stroke="rgb(179,179,179)" stroke-linejoin="round" d="M 41860,1953 L 3339,1953"/>
 <path fill="none" stroke="rgb(179,179,179)" stroke-linejoin="round" d="M 41860,399 L 3339,399"/>
 <path fill="none" stroke="rgb(179,179,179)" stroke-linejoin="round" d="M 3339,8322 L 3339,8172"/>
 <path fill="none" stroke="rgb(179,179,179)" stroke-linejoin="round" d="M 3339,8322 L 3339,8172"/>
 <path fill="none" stroke="rgb(179,179,179)" stroke-linejoin="round" d="M 7619,8322 L 7619,8172"/>
 <path fill="none" stroke="rgb(179,179,179)" stroke-linejoin="round" d="M 7619,8322 L 7619,8172"/>
 <path fill="none" stroke="rgb(179,179,179)" stroke-linejoin="round" d="M 11899,8322 L 11899,8172"/>
 <path fill="none" stroke="rgb(179,179,179)" stroke-linejoin="round" d="M 11899,8322 L 11899,8172"/>
 <path fill="none" stroke="rgb(179,179,179)" stroke-linejoin="round" d="M 16179,8322 L 16179,8172"/>
 <path fill="none" stroke="rgb(179,179,179)" stroke-linejoin="round" d="M 16179,8322 L 16179,8172"/>
 <path fill="none" stroke="rgb(179,179,179)" stroke-linejoin="round" d="M 20459,8322 L 20459,8172"/>
 <path fill="none" stroke="rgb(179,179,179)" stroke-linejoin="round" d="M 20459,8322 L 20459,8172"/>
 <path fill="none" stroke="rgb(179,179,179)" stroke-linejoin="round" d="M 24739,8322 L 24739,8172"/>
 <path fill="none" stroke="rgb(179,179,179)" stroke-linejoin="round" d="M 24739,8322 L 24739,8172"/>
 <path fill="none" stroke="rgb(179,179,179)" stroke-linejoin="round" d="M 29019,8322 L 29019,8172"/>
 <path fill="none" stroke="rgb(179,179,179)" stroke-linejoin="round" d="M 29019,8322 L 29019,8172"/>
 <path fill="none" stroke="rgb(179,179,179)" stroke-linejoin="round" d="M 33299,8322 L 33299,8172"/>
 <path fill="none" stroke="rgb(179,179,179)" stroke-linejoin="round" d="M 33299,8322 L 33299,8172"/>
 <path fill="none" stroke="rgb(179,179,179)" stroke-linejoin="round" d="M 37579,8322 L 37579,8172"/>
 <path fill="none" stroke="rgb(179,179,179)" stroke-linejoin="round" d="M 37579,8322 L 37579,8172"/>
 <path fill="none" stroke="rgb(179,179,179)" stroke-linejoin="round" d="M 41860,8322 L 41860,8172"/>
 <path fill="none" stroke="rgb(179,179,179)" stroke-linejoin="round" d="M 41860,8322 L 41860,8172"/>
 <path fill="none" stroke="rgb(179,179,179)" stroke-linejoin="round" d="M 3339,8172 L 41860,8172"/>
 <path fill="none" stroke="rgb(179,179,179)" stroke-linejoin="round" d="M 3189,8172 L 3339,8172"/>
 <path fill="none" stroke="rgb(179,179,179)" stroke-linejoin="round" d="M 3189,8172 L 3339,8172"/>
 <path fill="none" stroke="rgb(179,179,179)" stroke-linejoin="round" d="M 3189,6617 L 3339,6617"/>
 <path fill="none" stroke="rgb(179,179,179)" stroke-linejoin="round" d="M 3189,6617 L 3339,6617"/>
 <path fill="none" stroke="rgb(179,179,179)" stroke-linejoin="round" d="M 3189,5062 L 3339,5062"/>
 <path fill="none" stroke="rgb(179,179,179)" stroke-linejoin="round" d="M 3189,5062 L 3339,5062"/>
 <path fill="none" stroke="rgb(179,179,179)" stroke-linejoin="round" d="M 3189,3508 L 3339,3508"/>
 <path fill="none" stroke="rgb(179,179,179)" stroke-linejoin="round" d="M 3189,3508 L 3339,3508"/>
 <path fill="none" stroke="rgb(179,179,179)" stroke-linejoin="round" d="M 3189,1953 L 3339,1953"/>
 <path fill="none" stroke="rgb(179,179,179)" stroke-linejoin="round" d="M 3189,1953 L 3339,1953"/>
 <path fill="none" stroke="rgb(179,179,179)" stroke-linejoin="round" d="M 3189,399 L 3339,399"/>
 <path fill="none" stroke="rgb(179,179,179)" stroke-linejoin="round" d="M 3189,399 L 3339,399"/>
 <path fill="none" stroke="rgb(179,179,179)" stroke-linejoin="round" d="M 3339,8172 L 3339,399"/>
 <path fill="none" stroke="rgb(0,69,134)" stroke-width="80" stroke-linejoin="round" d="M 3381,1225 L 3424,1230 3467,1230 3510,1225 3553,1236 3595,1236 3638,1255 3681,1279 3724,1317 3767,1350 3809,1408 3852,1451 3895,1518 3938,1528 3981,1543 4023,1547 4066,1553 4109,1553 4152,1554 4195,1554 4237,1553 4280,1564 4323,1557 4366,1564 4409,1567 4451,1576 4494,1592 4537,1588 4580,1589 4623,1586 4665,1609 4708,1598 4751,1593 4794,1587 4837,1582 4879,1587 4922,1588 4965,1596 5008,1598 5051,1602 5093,1612 5136,1612 5179,1607 5222,1629 5265,1629 5307,1629 5350,1630 5393,1636 5436,1636 5479,1636 5521,1636 5564,1636 5607,1636 5650,1636 5693,1636 5735,1636 5778,1636 5821,1657 5864,1657 5907,1657 5949,1657 5992,1657 6035,1657 6078,1657 6121,1670 6163,1657 6206,1676 6249,1659 6292,1663 6335,1670 6377,1676 6420,1678 6463,1678 6506,1679 6549,1679 6591,1679 6634,1679 6677,1679 6720,1679 6763,1679 6805,1692 6848,1683 6891,1679 6934,1679 6977,1697 7019,1697 7062,1711 7105,1711 7148,1711 7191,1718 7234,1728 7276,1723 7319,1741 7362,1741 7405,1724 7448,1756 7490,1756 7533,1756 7576,1838 7619,1864 7662,1864 7704,1864 7747,1864 7790,1864 7833,1869 7876,1869 7918,1869 7961,1869 8004,1885 8047,1885 8090,1885 8132,1887 8175,1899 8218,1892 8261,1918 8304,1918 8346,1918 8389,1900 8432,1938 8475,1900 8518,1941 8560,1900 8603,1907 8646,1907 8689,2415 8732,1991 8774,1902 8817,1902 8860,3028 8903,1936 8946,1918 8988,2512 9031,2512 9074,2512 9117,3076 9160,3076 9202,3090 9245,3118 9288,3077 9331,3163 9374,3283 9416,3058 9459,3147 9502,3057 9545,3207 9588,3265 9630,3363 9673,3433 9716,3495 9759,3659 9802,3656 9844,3677 9887,3654 9930,3709 9973,3767 10016,3793 10058,3881 10101,3875 10144,3805 10187,3846 10230,3934 10272,3901 10315,3854 10358,3879 10401,3813 10444,3864 10486,3873 10529,3856 10572,3885 10615,3838 10658,3850 10700,3854 10743,3821 10786,3917 10829,3810 10872,3812 10914,3803 10957,3786 11000,3875 11043,3934 11086,3806 11129,3761 11171,3797 11214,3808 11257,3911 11300,3983 11343,3961 11385,4017 11428,4017 11471,4022 11514,4068 11557,3729 11599,3970 11642,3982 11685,4077 11728,4083 11771,4079 11813,4084 11856,4078 11899,4115 11942,4122 11985,4129 12027,4126 12070,4139 12113,4139 12156,4146 12199,4167 12241,4181 12284,4183 12327,4154 12370,4154 12413,4158 12455,4158 12498,4158 12541,4113 12584,4139 12627,4114 12669,4126 12712,4162 12755,4162 12798,4171 12841,4162 12883,4160 12926,4136 12969,4099 13012,4078 13055,4075 13097,4163 13140,4123 13183,4087 13226,4146 13269,4097 13311,4129 13354,4094 13397,4064 13440,4106 13483,4088 13525,4153 13568,4156 13611,4179 13654,4142 13697,4147 13739,4173 13782,4173 13825,4226 13868,4205 13911,4216 13953,4230 13996,4224 14039,4231 14082,4249 14125,4254 14167,4242 14210,4282 14253,4283 14296,4253 14339,4273 14381,4239 14424,4239 14467,4211 14510,4387 14553,4229 14595,4245 14638,4184 14681,4089 14724,4100 14767,4161 14809,4146 14852,4163 14895,4164 14938,4114 14981,4114 15024,4079 15066,4057 15109,4100 15152,4100 15195,4063 15238,4099 15280,4097 15323,4067 15366,4201 15409,4045 15452,4066 15494,4060 15537,4094 15580,4081 15623,4117 15666,4093 15708,4130 15751,4197 15794,4159 15837,4169 15880,4159 15922,4221 15965,4213 16008,4271 16051,4242 16094,4287 16136,4287 16179,4323 16222,4321 16265,4287 16308,4326 16350,4391 16393,4393 16436,4359 16479,4393 16522,4393 16564,4377 16607,4345 16650,4427 16693,4407 16736,4434 16778,4395 16821,4225 16864,4218 16907,4207 16950,4237 16992,4133 17035,4149 17078,4148 17121,4143 17164,4124 17206,4132 17249,4128 17292,4129 17335,4116 17378,4100 17420,4202 17463,4137 17506,4128 17549,4149 17592,4084 17634,4086 17677,4108 17720,4089 17763,4088 17806,4143 17848,4155 17891,4169 17934,4200 17977,4198 18020,4224 18062,4261 18105,4328 18148,4290 18191,4300 18234,4320 18276,4266 18319,4346 18362,4421 18405,4365 18448,4367 18490,4470 18533,4470 18576,4317 18619,4317 18662,4267 18704,4294 18747,4291 18790,4218 18833,4191 18876,4183 18919,4234 18961,4225 19004,4239 19047,4191 19090,4221 19133,4280 19175,4279 19218,4273 19261,4262 19304,4121 19347,4150 19389,4114 19432,4148 19475,4140 19518,4139 19561,4601 19603,4670 19646,4185 19689,4205 19732,4160 19775,4244 19817,4426 19860,4431 19903,4433 19946,4442 19989,4433 20031,4440 20074,4488 20117,4488 20160,4489 20203,4491 20245,4481 20288,4534 20331,4473 20374,4489 20417,4509 20459,4512 20502,4515 20545,4467 20588,4508 20631,4469 20673,4432 20716,4460 20759,4464 20802,4458 20845,4303 20887,4267 20930,4327 20973,4320 21016,4324 21059,4303 21101,4314 21144,4230 21187,4354 21230,4404 21273,4271 21315,4339 21358,4381 21401,4252 21444,4340 21487,4335 21528,4310 21571,4233 21614,4902 21657,4805 21700,4781 21742,4821 21785,4510 21828,4786 21871,4796 21914,4847 21956,4883 21999,4923 22042,4937 22085,5058 22128,5056 22170,5179 22213,5177 22256,5205 22299,5158 22342,5196 22384,5277 22427,5297 22470,5312 22513,5428 22556,5502 22599,5368 22641,5476 22684,5475 22727,5462 22770,5387 22813,5494 22855,5415 22898,5485 22941,5286 22984,5239 23027,5355 23069,5270 23112,5164 23155,5335 23198,5416 23241,5461 23283,5261 23326,5454 23369,5409 23412,5177 23455,5235 23497,5335 23540,5314 23583,5474 23626,5292 23669,5444 23711,5447 23754,5553 23797,5415 23840,5260 23883,5276 23925,5634 23968,5681 24011,5842 24054,5842 24097,6102 24139,6076 24182,6135 24225,6201 24268,6281 24311,6241 24353,6279 24396,6331 24439,6323 24482,6407 24525,6424 24567,6492 24610,6572 24653,6528 24696,6469 24739,6425 24781,6532 24824,6370 24867,6361 24910,6342 24953,6351 24995,6280 25038,6370 25081,6370 25124,6314 25167,6307 25209,6334 25252,6345 25295,6172 25338,6114 25381,6118 25423,5953 25466,6135 25509,6005 25552,6204 25595,6283 25637,6386 25680,5780 25723,5830 25766,5783 25809,5887 25851,6084 25894,6080 25937,5761 25980,5982 26023,6184 26065,6074 26108,6317 26151,6229 26194,6244 26237,6308 26279,6374 26322,6409 26365,6411 26408,6442 26451,6465 26494,6476 26536,6457 26579,6462 26622,6462 26665,6507 26708,6491 26750,6471 26793,6460 26836,6500 26879,6499 26922,6391 26964,6468 27007,6492 27050,6271 27093,6123 27136,6360 27178,6360 27221,6325 27264,6010 27307,6072 27350,6118 27392,6123 27435,6126 27478,5837 27521,5757 27564,6043 27606,6046 27649,6115 27692,6038 27735,6378 27778,6044 27820,5759 27863,5862 27906,6022 27949,6108 27992,6332 28034,6276 28077,6383 28120,6399 28163,6445 28206,6445 28248,6445 28291,6452 28334,6409 28377,6476 28420,6497 28462,6523 28505,6532 28548,6580 28591,6678 28634,6739 28676,6709 28719,6761 28762,6775 28805,6668 28848,6784 28890,6680 28933,6512 28976,6467 29019,6528 29062,6492 29104,6301 29147,6416 29190,6372 29233,6314 29276,6029 29318,6391 29361,6049 29404,5888 29447,5885 29490,6151 29532,6136 29575,5863 29618,5786 29661,5818 29704,5685 29746,5894 29789,5930 29832,5576 29875,5557 29918,5555 29960,5919 30003,5865 30046,5771 30089,5938 30132,5882 30174,6202 30217,6296 30260,6267 30303,6616 30346,6616 30389,6757 30431,6621 30474,6643 30517,6677 30560,6745 30603,6830 30645,6841 30688,6921 30731,6921 30774,6921 30817,7190 30859,6806 30902,6763 30945,6651 30988,6700 31031,6622 31073,6693 31116,6697 31159,6660 31202,6663 31245,6373 31287,6474 31330,6474 31373,6244 31416,6297 31459,5917 31501,5900 31544,5911 31587,6091 31630,6130 31673,6137 31715,6106 31758,6088 31801,6084 31844,6259 31887,5883 31929,6149 31972,5894 32015,5990 32058,6092 32101,6092 32143,6442 32186,6441 32229,6502 32272,6676 32315,6676 32357,6755 32400,6787 32443,6939 32486,6929 32529,6928 32571,6998 32614,7033 32657,6999 32700,7082 32743,7075 32785,7104 32828,7074 32871,7097 32914,7097 32957,7086 32999,7089 33042,7083 33085,7434 33128,7065 33171,6885 33213,7007 33256,6866 33299,7012 33342,6988 33385,6995 33427,6956 33470,7002 33513,7007 33556,6886 33599,6669 33641,6647 33684,6663 33727,6715 33770,6567 33813,6458 33855,6531 33898,6538 33941,6134 33984,6627 34027,6637 34069,6553 34112,6347 34155,6645 34198,6645 34241,6683 34284,7256 34326,7290 34369,7311 34412,7311 34455,7353 34498,7367 34540,7382 34583,7369 34626,7364 34669,7393 34712,7605 34754,7683 34797,7724 34840,7742 34883,7792 34926,8041 34968,7770 35011,8041 35054,8041 35097,7805 35140,7805 35182,7944 35225,7948 35268,7963 35311,7574 35354,7605 35396,7121 35439,7372 35482,7372 35525,7013 35568,7282 35610,7303 35653,7097 35696,7392 35739,7071 35782,7090 35824,7464 35867,7332 35910,7210 35953,7279 35996,7363 36038,7499 36081,7495 36124,7602 36167,7238 36210,7434 36252,7451 36295,7471 36338,7486 36381,7893 36424,7946 36466,7947 36509,8038 36552,8041 36595,8041 36638,8041 36680,8041 36723,8041 36766,8041 36809,8041 36852,8041 36894,8041 36937,8041 36980,8041 37023,8041 37066,8041 37108,8041 37151,8044 37194,8041 37237,8041 37280,8041 37322,8041 37365,8044 37408,8041 37451,8041 37494,8041 37536,8041 37579,8044 37622,8041 37665,8041 37708,8041 37750,8041 37793,8041 37836,8041 37879,8041 37922,8041 37964,8041 38007,8044 38050,8041 38093,8041 38136,8041 38179,8041 38221,8041 38264,8044 38307,8044 38350,8044 38393,8044 38435,8044 38478,8044 38521,8044 38564,8044 38607,8044 38649,8044 38692,8044 38735,8044 38778,8044 38821,8044 38863,8044 38906,8044 38949,8044 38992,8044 39035,8044 39077,8044 39120,8044 39163,8044 39206,8044 39249,8044 39291,8044 39334,8041 39377,8041 39420,8041 39463,8041 39505,8041 39548,7947 39591,8041 39634,8041 39677,8041 39719,7947 39762,7947 39805,8041 39848,8041 39891,8041 39933,7947 39976,8041 40019,8041 40062,7947 40105,8041 40147,8041 40190,8041 40233,8041 40276,8041 40319,8041 40361,8041 40404,8041 40447,8041 40490,8041 40533,8041 40575,8041 40618,8041 40661,8041 40704,8041 40747,8041 40789,8041 40832,8041 40875,8041 40918,8053 40961,8072"/>
 <text class="TextShape"><tspan class="TextParagraph" font-family="Liberation Sans, sans-serif" font-size="353px" font-weight="400"><tspan class="TextPosition" x="3246" y="8740"><tspan fill="rgb(0,0,0)" stroke="none">0</tspan></tspan></tspan></text>
 <text class="TextShape"><tspan class="TextParagraph" font-family="Liberation Sans, sans-serif" font-size="353px" font-weight="400"><tspan class="TextPosition" x="7341" y="8740"><tspan fill="rgb(0,0,0)" stroke="none">100</tspan></tspan></tspan></text>
 <text class="TextShape"><tspan class="TextParagraph" font-family="Liberation Sans, sans-serif" font-size="353px" font-weight="400"><tspan class="TextPosition" x="11621" y="8740"><tspan fill="rgb(0,0,0)" stroke="none">200</tspan></tspan></tspan></text>
 <text class="TextShape"><tspan class="TextParagraph" font-family="Liberation Sans, sans-serif" font-size="353px" font-weight="400"><tspan class="TextPosition" x="15901" y="8740"><tspan fill="rgb(0,0,0)" stroke="none">300</tspan></tspan></tspan></text>
 <text class="TextShape"><tspan class="TextParagraph" font-family="Liberation Sans, sans-serif" font-size="353px" font-weight="400"><tspan class="TextPosition" x="20181" y="8740"><tspan fill="rgb(0,0,0)" stroke="none">400</tspan></tspan></tspan></text>
 <text class="TextShape"><tspan class="TextParagraph" font-family="Liberation Sans, sans-serif" font-size="353px" font-weight="400"><tspan class="TextPosition" x="24462" y="8740"><tspan fill="rgb(0,0,0)" stroke="none">500</tspan></tspan></tspan></text>
 <text class="TextShape"><tspan class="TextParagraph" font-family="Liberation Sans, sans-serif" font-size="353px" font-weight="400"><tspan class="TextPosition" x="28742" y="8740"><tspan fill="rgb(0,0,0)" stroke="none">600</tspan></tspan></tspan></text>
 <text class="TextShape"><tspan class="TextParagraph" font-family="Liberation Sans, sans-serif" font-size="353px" font-weight="400"><tspan class="TextPosition" x="33022" y="8740"><tspan fill="rgb(0,0,0)" stroke="none">700</tspan></tspan></tspan></text>
 <text class="TextShape"><tspan class="TextParagraph" font-family="Liberation Sans, sans-serif" font-size="353px" font-weight="400"><tspan class="TextPosition" x="37302" y="8740"><tspan fill="rgb(0,0,0)" stroke="none">800</tspan></tspan></tspan></text>
 <text class="TextShape"><tspan class="TextParagraph" font-family="Liberation Sans, sans-serif" font-size="353px" font-weight="400"><tspan class="TextPosition" x="41583" y="8740"><tspan fill="rgb(0,0,0)" stroke="none">900</tspan></tspan></tspan></text>
 <text class="TextShape"><tspan class="TextParagraph" font-family="Liberation Sans, sans-serif" font-size="353px" font-weight="400"><tspan class="TextPosition" x="2428" y="8293"><tspan fill="rgb(0,0,0)" stroke="none">0.00</tspan></tspan></tspan></text>
 <text class="TextShape"><tspan class="TextParagraph" font-family="Liberation Sans, sans-serif" font-size="353px" font-weight="400"><tspan class="TextPosition" x="2057" y="6738"><tspan fill="rgb(0,0,0)" stroke="none">500.00</tspan></tspan></tspan></text>
 <text class="TextShape"><tspan class="TextParagraph" font-family="Liberation Sans, sans-serif" font-size="353px" font-weight="400"><tspan class="TextPosition" x="1872" y="5183"><tspan fill="rgb(0,0,0)" stroke="none">1000.00</tspan></tspan></tspan></text>
 <text class="TextShape"><tspan class="TextParagraph" font-family="Liberation Sans, sans-serif" font-size="353px" font-weight="400"><tspan class="TextPosition" x="1872" y="3628"><tspan fill="rgb(0,0,0)" stroke="none">1500.00</tspan></tspan></tspan></text>
 <text class="TextShape"><tspan class="TextParagraph" font-family="Liberation Sans, sans-serif" font-size="353px" font-weight="400"><tspan class="TextPosition" x="1872" y="2073"><tspan fill="rgb(0,0,0)" stroke="none">2000.00</tspan></tspan></tspan></text>
 <text class="TextShape"><tspan class="TextParagraph" font-family="Liberation Sans, sans-serif" font-size="353px" font-weight="400"><tspan class="TextPosition" x="1872" y="519"><tspan fill="rgb(0,0,0)" stroke="none">2500.00</tspan></tspan></tspan></text>
 <text class="TextShape"><tspan class="TextParagraph" font-family="Liberation Sans, sans-serif" font-size="318px" font-weight="400"><tspan class="TextPosition" x="21225" y="9407"><tspan fill="rgb(0,0,0)" stroke="none">generation</tspan></tspan></tspan></text>
 <text class="TextShape" transform="rotate(-90 837 6309)"><tspan class="TextParagraph" font-family="Liberation Sans, sans-serif" font-size="318px" font-weight="400"><tspan class="TextPosition" x="837" y="6309"><tspan fill="rgb(0,0,0)" stroke="none">best fitness in generation</tspan></tspan></tspan></text>
</svg>