<?xml version="1.0" encoding="UTF-8"?>
<!DOCTYPE svg PUBLIC "-//W3C//DTD SVG 1.1//EN" "http://www.w3.org/Graphics/SVG/1.1/DTD/svg11.dtd">
<svg width="430mm" height="100mm" viewBox="0 0 43000 10000" version="1.1" xmlns="http://www.w3.org/2000/svg" xmlns:xlink="http://www.w3.org/1999/xlink" stroke-width="28.222" stroke-linejoin="round" xml:space="preserve">
 <path fill="rgb(255,255,255)" stroke="none" d="M 21500,10000 L 0,10000 0,0 43000,0 43000,10000 21500,10000 Z"/>
 <path fill="none" stroke="rgb(179,179,179)" stroke-linejoin="round" d="M 22639,7989 L 3393,7989 3393,421 41885,421 41885,7989 22639,7989 Z"/>
 <path fill="none" stroke="rgb(179,179,179)" stroke-linejoin="round" d="M 3393,420 L 3393,7988"/>
 <path fill="none" stroke="rgb(179,179,179)" stroke-linejoin="round" d="M 10391,420 L 10391,7988"/>
 <path fill="none" stroke="rgb(179,179,179)" stroke-linejoin="round" d="M 17390,420 L 17390,7988"/>
 <path fill="none" stroke="rgb(179,179,179)" stroke-linejoin="round" d="M 24388,420 L 24388,7988"/>
 <path fill="none" stroke="rgb(179,179,179)" stroke-linejoin="round" d="M 31386,420 L 31386,7988"/>
 <path fill="none" stroke="rgb(179,179,179)" stroke-linejoin="round" d="M 38385,420 L 38385,7988"/>
 <path fill="none" stroke="rgb(179,179,179)" stroke-linejoin="round" d="M 41885,7988 L 3393,7988"/>
 <path fill="none" stroke="rgb(179,179,179)" stroke-linejoin="round" d="M 41885,6726 L 3393,6726"/>
 <path fill="none" stroke="rgb(179,179,179)" stroke-linejoin="round" d="M 41885,5465 L 3393,5465"/>
 <path fill="none" stroke="rgb(179,179,179)" stroke-linejoin="round" d="M 41885,4204 L 3393,4204"/>
 <path fill="none" stroke="rgb(179,179,179)" stroke-linejoin="round" d="M 41885,2943 L 3393,2943"/>
 <path fill="none" stroke="rgb(179,179,179)" stroke-linejoin="round" d="M 41885,1681 L 3393,1681"/>
 <path fill="none" stroke="rgb(179,179,179)" stroke-linejoin="round" d="M 41885,420 L 3393,420"/>
 <path fill="none" stroke="rgb(179,179,179)" stroke-linejoin="round" d="M 3393,8138 L 3393,7988"/>
 <path fill="none" stroke="rgb(179,179,179)" stroke-linejoin="round" d="M 3393,8138 L 3393,7988"/>
 <path fill="none" stroke="rgb(179,179,179)" stroke-linejoin="round" d="M 10391,8138 L 10391,7988"/>
 <path fill="none" stroke="rgb(179,179,179)" stroke-linejoin="round" d="M 10391,8138 L 10391,7988"/>
 <path fill="none" stroke="rgb(179,179,179)" stroke-linejoin="round" d="M 17390,8138 L 17390,7988"/>
 <path fill="none" stroke="rgb(179,179,179)" stroke-linejoin="round" d="M 17390,8138 L 17390,7988"/>
 <path fill="none" stroke="rgb(179,179,179)" stroke-linejoin="round" d="M 24388,8138 L 24388,7988"/>
 <path fill="none" stroke="rgb(179,179,179)" stroke-linejoin="round" d="M 24388,8138 L 24388,7988"/>
 <path fill="none" stroke="rgb(179,179,179)" stroke-linejoin="round" d="M 31386,8138 L 31386,7988"/>
 <path fill="none" stroke="rgb(179,179,179)" stroke-linejoin="round" d="M 31386,8138 L 31386,7988"/>
 <path fill="none" stroke="rgb(179,179,179)" stroke-linejoin="round" d="M 38385,8138 L 38385,7988"/>
 <path fill="none" stroke="rgb(179,179,179)" stroke-linejoin="round" d="M 38385,8138 L 38385,7988"/>
 <path fill="none" stroke="rgb(179,179,179)" stroke-linejoin="round" d="M 3393,7988 L 41885,7988"/>
 <path fill="none" stroke="rgb(179,179,179)" stroke-linejoin="round" d="M 3243,7988 L 3393,7988"/>
 <path fill="none" stroke="rgb(179,179,179)" stroke-linejoin="round" d="M 3243,7988 L 3393,7988"/>
 <path fill="none" stroke="rgb(179,179,179)" stroke-linejoin="round" d="M 3243,6726 L 3393,6726"/>
 <path fill="none" stroke="rgb(179,179,179)" stroke-linejoin="round" d="M 3243,6726 L 3393,6726"/>
 <path fill="none" stroke="rgb(179,179,179)" stroke-linejoin="round" d="M 3243,5465 L 3393,5465"/>
 <path fill="none" stroke="rgb(179,179,179)" stroke-linejoin="round" d="M 3243,5465 L 3393,5465"/>
 <path fill="none" stroke="rgb(179,179,179)" stroke-linejoin="round" d="M 3243,4204 L 3393,4204"/>
 <path fill="none" stroke="rgb(179,179,179)" stroke-linejoin="round" d="M 3243,4204 L 3393,4204"/>
 <path fill="none" stroke="rgb(179,179,179)" stroke-linejoin="round" d="M 3243,2943 L 3393,2943"/>
 <path fill="none" stroke="rgb(179,179,179)" stroke-linejoin="round" d="M 3243,2943 L 3393,2943"/>
 <path fill="none" stroke="rgb(179,179,179)" stroke-linejoin="round" d="M 3243,1681 L 3393,1681"/>
 <path fill="none" stroke="rgb(179,179,179)" stroke-linejoin="round" d="M 3243,1681 L 3393,1681"/>
 <path fill="none" stroke="rgb(179,179,179)" stroke-linejoin="round" d="M 3243,420 L 3393,420"/>
 <path fill="none" stroke="rgb(179,179,179)" stroke-linejoin="round" d="M 3243,420 L 3393,420"/>
 <path fill="none" stroke="rgb(179,179,179)" stroke-linejoin="round" d="M 3393,7988 L 3393,420"/>
 <path fill="none" stroke="rgb(0,69,134)" stroke-width="80" stroke-linejoin="round" d="M 3462,1765 L 3532,1749 3602,1749 3672,1749 3742,1749 3812,1749 3882,1754 3952,1765 4022,1771 4092,1771 4162,1776 4232,1776 4302,1776 4372,2514 4442,2514 4512,2606 4582,2700 4652,3241 4722,2664 4792,3031 4862,2656 4932,2695 5002,2677 5072,2689 5142,2739 5212,2752 5282,2752 5352,2749 5422,2749 5492,2749 5562,2823 5632,2744 5702,2696 5772,2695 5842,2695 5912,2720 5982,2720 6052,2725 6122,2720 6192,2735 6262,2930 6332,2735 6402,2768 6472,2768 6542,2768 6612,2769 6682,2769 6752,2769 6822,2769 6892,2769 6962,2769 7032,2769 7102,2769 7172,2769 7242,2769 7312,2769 7382,2769 7452,2770 7522,2770 7592,2770 7662,2774 7732,2798 7802,2798 7872,2798 7942,2798 8012,2798 8082,2822 8152,2822 8222,2822 8292,2825 8362,2827 8432,2827 8502,2827 8572,2827 8642,2827 8712,2848 8782,2850 8852,3944 8921,3937 8991,3937 9061,3944 9131,3951 9201,3950 9271,3950 9341,3950 9411,3950 9481,3950 9551,3951 9621,3951 9691,3950 9761,3950 9831,3954 9901,3960 9971,3960 10041,3960 10111,4107 10181,4107 10251,4107 10321,4107 10391,4107 10461,4107 10531,4107 10601,4107 10671,4113 10741,4113 10811,4204 10881,4204 10951,4204 11021,4206 11091,4206 11161,4210 11231,4212 11301,4212 11371,4213 11441,4218 11511,4294 11581,4292 11651,4294 11721,4294 11791,4349 11861,4349 11931,4451 12001,4349 12071,4349 12141,4357 12211,4349 12281,4349 12351,4404 12421,4404 12491,4404 12561,4404 12631,4404 12701,4407 12771,4407 12841,4776 12911,4776 12981,4776 13051,5041 13121,5041 13191,5041 13261,5058 13331,5068 13401,5075 13471,5093 13541,5093 13611,5128 13681,5275 13751,5275 13821,5330 13891,5330 13961,5330 14031,5330 14101,5330 14171,5340 14241,5340 14311,5340 14381,5487 14450,5538 14520,5552 14590,5541 14660,5661 14730,5539 14800,5704 14870,5532 14940,6127 15010,5602 15080,5512 15150,5517 15220,5691 15290,5708 15360,5708 15430,5671 15500,5691 15570,5676 15640,5729 15710,5726 15780,5676 15850,5774 15920,5673 15990,5673 16060,5804 16130,5822 16200,5822 16270,5822 16340,5798 16410,5798 16480,5792 16550,5791 16620,5791 16690,5804 16760,5804 16830,5804 16900,5807 16970,5807 17040,5807 17110,5807 17180,5807 17250,5808 17320,5937 17390,5937 17460,6108 17530,6108 17600,6108 17670,6108 17740,6118 17810,6125 17880,6125 17950,6125 18020,6262 18090,6263 18160,6443 18230,6279 18300,6659 18370,6723 18440,6723 18510,6723 18580,6723 18650,6723 18720,6723 18790,6723 18860,6742 18930,6742 19000,6742 19070,6742 19140,6731 19210,6731 19280,6733 19350,6900 19420,6734 19490,6735 19560,6734 19630,6734 19700,6734 19770,6734 19840,6760 19909,6740 19979,6734 20049,6734 20119,6734 20189,6734 20259,6734 20329,6734 20399,6734 20469,6734 20539,6734 20609,6734 20679,6734 20749,6734 20819,6734 20889,6734 20959,6734 21029,6734 21099,6734 21169,6734 21239,6734 21309,6734 21379,6734 21449,6734 21518,6736 21588,6738 21658,6738 21728,6738 21798,6738 21868,6738 21938,6743 22008,6745 22078,6745 22148,6745 22218,6745 22288,6745 22358,6745 22428,6745 22498,6745 22568,6745 22638,6754 22708,6759 22778,6761 22848,6761 22918,6761 22988,6761 23058,7016 23128,6990 23198,7001 23268,6990 23338,7017 23408,7021 23478,7021 23548,7021 23618,7021 23688,7021 23758,7024 23828,7024 23898,7034 23968,7034 24038,7034 24108,7034 24178,7034 24248,7034 24318,7034 24388,7034 24458,7034 24528,7034 24598,7034 24668,7034 24738,7034 24808,7281 24878,7281 24948,7281 25018,7286 25088,7286 25158,7286 25228,7286 25298,7286 25368,7286 25437,7286 25507,7286 25577,7286 25647,7286 25717,7286 25787,7286 25857,7286 25927,7286 25997,7286 26067,7286 26137,7286 26207,7286 26277,7286 26347,7286 26417,7286 26487,7286 26557,7286 26627,7286 26697,7286 26767,7286 26837,7286 26907,7286 26977,7286 27047,7286 27117,7286 27187,7286 27257,7286 27327,7286 27397,7286 27467,7286 27537,7286 27607,7286 27677,7286 27747,7286 27817,7286 27887,7286 27957,7286 28027,7286 28097,7286 28167,7286 28237,7286 28307,7286 28377,7286 28447,7286 28517,7286 28587,7286 28657,7286 28727,7286 28797,7286 28867,7286 28937,7286 29007,7286 29077,7286 29147,7286 29217,7286 29287,7286 29357,7286 29427,7286 29497,7286 29567,7286 29637,7286 29707,7286 29777,7286 29847,7286 29917,7286 29987,7286 30057,7286 30127,7286 30197,7286 30267,7286 30337,7286 30407,7286 30477,7286 30547,7286 30617,7286 30687,7286 30757,7286 30827,7286 30896,7286 30966,7286 31036,7286 31106,7286 31176,7286 31246,7286 31316,7286 31386,7286 31456,7286 31526,7286 31596,7286 31666,7286 31736,7286 31806,7286 31876,7286 31946,7286 32016,7286 32086,7286 32156,7286 32226,7286 32296,7286 32366,7286 32436,7286 32506,7286 32576,7286 32646,7286 32716,7286 32786,7286 32856,7286 32926,7286 32996,7286 33066,7286 33136,7286 33206,7286 33276,7286 33346,7286 33416,7286 33486,7286 33556,7286 33626,7286 33696,7286 33766,7286 33836,7286 33906,7286 33976,7286 34046,7286 34116,7286 34186,7286 34256,7286 34326,7286 34396,7286 34466,7286 34536,7286 34606,7286 34676,7286 34746,7286 34816,7286 34886,7286 34956,7286 35026,7286 35096,7286 35166,7286 35236,7286 35306,7286 35376,7286 35446,7286 35516,7286 35586,7286 35656,7286 35726,7286 35796,7286 35866,7286 35936,7286 36006,7286 36076,7286 36146,7286 36216,7286 36286,7286 36356,7286 36425,7286 36495,7286 36565,7286 36635,7286 36705,7286 36775,7286 36845,7286 36915,7286 36985,7286 37055,7286 37125,7286 37195,7286 37265,7286 37335,7286 37405,7286 37475,7286 37545,7286 37615,7286 37685,7286 37755,7286 37825,7286 37895,7286 37965,7286 38035,7286 38105,7286 38175,7286 38245,7286 38315,7286 38385,7286 38455,7286 38525,7286 38595,7286 38665,7286 38735,7286 38805,7286 38875,7513 38945,7286 39015,7286 39085,7286 39155,7286 39225,7286 39295,7286 39365,7286 39435,7286 39505,7286 39575,7286 39645,7286 39715,7286 39785,7286 39855,7286 39925,7286 39995,7286 40065,7286 40135,7286 40205,7286 40275,7286 40345,7286 40415,7286 40485,7286 40555,7412 40625,7412 40695,7871 40765,7871 40835,7871 40905,7871 40975,7871 41045,7878 41115,7907"/>
 <text class="TextShape"><tspan class="TextParagraph" font-family="Liberation Sans, sans-serif" font-size="353px" font-weight="400"><tspan class="TextPosition" x="3300" y="8556"><tspan fill="rgb(0,0,0)" stroke="none">0</tspan></tspan></tspan></text>
 <text class="TextShape"><tspan class="TextParagraph" font-family="Liberation Sans, sans-serif" font-size="353px" font-weight="400"><tspan class="TextPosition" x="10113" y="8556"><tspan fill="rgb(0,0,0)" stroke="none">100</tspan></tspan></tspan></text>
 <text class="TextShape"><tspan class="TextParagraph" font-family="Liberation Sans, sans-serif" font-size="353px" font-weight="400"><tspan class="TextPosition" x="17112" y="8556"><tspan fill="rgb(0,0,0)" stroke="none">200</tspan></tspan></tspan></text>
 <text class="TextShape"><tspan class="TextParagraph" font-family="Liberation Sans, sans-serif" font-size="353px" font-weight="400"><tspan class="TextPosition" x="24111" y="8556"><tspan fill="rgb(0,0,0)" stroke="none">300</tspan></tspan></tspan></text>
 <text class="TextShape"><tspan class="TextParagraph" font-family="Liberation Sans, sans-serif" font-size="353px" font-weight="400"><tspan class="TextPosition" x="31109" y="8556"><tspan fill="rgb(0,0,0)" stroke="none">400</tspan></tspan></tspan></text>
 <text class="TextShape"><tspan class="TextParagraph" font-family="Liberation Sans, sans-serif" font-size="353px" font-weight="400"><tspan class="TextPosition" x="38108" y="8556"><tspan fill="rgb(0,0,0)" stroke="none">500</tspan></tspan></tspan></text>
 <text class="TextShape"><tspan class="TextParagraph" font-family="Liberation Sans, sans-serif" font-size="353px" font-weight="400"><tspan class="TextPosition" x="2482" y="8109"><tspan fill="rgb(0,0,0)" stroke="none">0.00</tspan></tspan></tspan></text>
 <text class="TextShape"><tspan class="TextParagraph" font-family="Liberation Sans, sans-serif" font-size="353px" font-weight="400"><tspan class="TextPosition" x="2111" y="6847"><tspan fill="rgb(0,0,0)" stroke="none">500.00</tspan></tspan></tspan></text>
 <text class="TextShape"><tspan class="TextParagraph" font-family="Liberation Sans, sans-serif" font-size="353px" font-weight="400"><tspan class="TextPosition" x="1926" y="5586"><tspan fill="rgb(0,0,0)" stroke="none">1000.00</tspan></tspan></tspan></text>
 <text class="TextShape"><tspan class="TextParagraph" font-family="Liberation Sans, sans-serif" font-size="353px" font-weight="400"><tspan class="TextPosition" x="1926" y="4324"><tspan fill="rgb(0,0,0)" stroke="none">1500.00</tspan></tspan></tspan></text>
 <text class="TextShape"><tspan class="TextParagraph" font-family="Liberation Sans, sans-serif" font-size="353px" font-weight="400"><tspan class="TextPosition" x="1926" y="3063"><tspan fill="rgb(0,0,0)" stroke="none">2000.00</tspan></tspan></tspan></text>
 <text class="TextShape"><tspan class="TextParagraph" font-family="Liberation Sans, sans-serif" font-size="353px" font-weight="400"><tspan class="TextPosition" x="1926" y="1801"><tspan fill="rgb(0,0,0)" stroke="none">2500.00</tspan></tspan></tspan></text>
 <text class="TextShape"><tspan class="TextParagraph" font-family="Liberation Sans, sans-serif" font-size="353px" font-weight="400"><tspan class="TextPosition" x="1926" y="540"><tspan fill="rgb(0,0,0)" stroke="none">3000.00</tspan></tspan></tspan></text>
 <text class="TextShape"><tspan class="TextParagraph" font-family="Liberation Sans, sans-serif" font-size="318px" font-weight="400"><tspan class="TextPosition" x="21124" y="9223"><tspan fill="rgb(0,0,0)" stroke="none">generation</tspan></tspan></tspan></text>
 <text class="TextShape" transform="rotate(-90 891 6227)"><tspan class="TextParagraph" font-family="Liberation Sans, sans-serif" font-size="318px" font-weight="400"><tspan class="TextPosition" x="891" y="6227"><tspan fill="rgb(0,0,0)" stroke="none">best fitness in generation</tspan></tspan></tspan></text>
</svg>