<?xml version="1.0" encoding="UTF-8"?>
<!DOCTYPE svg PUBLIC "-//W3C//DTD SVG 1.1//EN" "http://www.w3.org/Graphics/SVG/1.1/DTD/svg11.dtd">
<svg width="430mm" height="100mm" viewBox="0 0 43000 10000" version="1.1" xmlns="http://www.w3.org/2000/svg" xmlns:xlink="http://www.w3.org/1999/xlink" stroke-width="28.222" stroke-linejoin="round" xml:space="preserve">
 <path fill="rgb(255,255,255)" stroke="none" d="M 21500,10000 L 0,10000 0,0 43000,0 43000,10000 21500,10000 Z"/>
 <path fill="none" stroke="rgb(179,179,179)" stroke-linejoin="round" d="M 22739,8172 L 3339,8172 3339,399 42140,399 42140,8172 22739,8172 Z"/>
 <path fill="none" stroke="rgb(179,179,179)" stroke-linejoin="round" d="M 3339,398 L 3339,8171"/>
 <path fill="none" stroke="rgb(179,179,179)" stroke-linejoin="round" d="M 10267,398 L 10267,8171"/>
 <path fill="none" stroke="rgb(179,179,179)" stroke-linejoin="round" d="M 17196,398 L 17196,8171"/>
 <path fill="none" stroke="rgb(179,179,179)" stroke-linejoin="round" d="M 24124,398 L 24124,8171"/>
 <path fill="none" stroke="rgb(179,179,179)" stroke-linejoin="round" d="M 31053,398 L 31053,8171"/>
 <path fill="none" stroke="rgb(179,179,179)" stroke-linejoin="round" d="M 37982,398 L 37982,8171"/>
 <path fill="none" stroke="rgb(179,179,179)" stroke-linejoin="round" d="M 42140,8171 L 3339,8171"/>
 <path fill="none" stroke="rgb(179,179,179)" stroke-linejoin="round" d="M 42140,6616 L 3339,6616"/>
 <path fill="none" stroke="rgb(179,179,179)" stroke-linejoin="round" d="M 42140,5061 L 3339,5061"/>
 <path fill="none" stroke="rgb(179,179,179)" stroke-linejoin="round" d="M 42140,3507 L 3339,3507"/>
 <path fill="none" stroke="rgb(179,179,179)" stroke-linejoin="round" d="M 42140,1952 L 3339,1952"/>
 <path fill="none" stroke="rgb(179,179,179)" stroke-linejoin="round" d="M 42140,398 L 3339,398"/>
 <path fill="none" stroke="rgb(179,179,179)" stroke-linejoin="round" d="M 3339,8321 L 3339,8171"/>
 <path fill="none" stroke="rgb(179,179,179)" stroke-linejoin="round" d="M 3339,8321 L 3339,8171"/>
 <path fill="none" stroke="rgb(179,179,179)" stroke-linejoin="round" d="M 10267,8321 L 10267,8171"/>
 <path fill="none" stroke="rgb(179,179,179)" stroke-linejoin="round" d="M 10267,8321 L 10267,8171"/>
 <path fill="none" stroke="rgb(179,179,179)" stroke-linejoin="round" d="M 17196,8321 L 17196,8171"/>
 <path fill="none" stroke="rgb(179,179,179)" stroke-linejoin="round" d="M 17196,8321 L 17196,8171"/>
 <path fill="none" stroke="rgb(179,179,179)" stroke-linejoin="round" d="M 24124,8321 L 24124,8171"/>
 <path fill="none" stroke="rgb(179,179,179)" stroke-linejoin="round" d="M 24124,8321 L 24124,8171"/>
 <path fill="none" stroke="rgb(179,179,179)" stroke-linejoin="round" d="M 31053,8321 L 31053,8171"/>
 <path fill="none" stroke="rgb(179,179,179)" stroke-linejoin="round" d="M 31053,8321 L 31053,8171"/>
 <path fill="none" stroke="rgb(179,179,179)" stroke-linejoin="round" d="M 37982,8321 L 37982,8171"/>
 <path fill="none" stroke="rgb(179,179,179)" stroke-linejoin="round" d="M 37982,8321 L 37982,8171"/>
 <path fill="none" stroke="rgb(179,179,179)" stroke-linejoin="round" d="M 3339,8171 L 42140,8171"/>
 <path fill="none" stroke="rgb(179,179,179)" stroke-linejoin="round" d="M 3189,8171 L 3339,8171"/>
 <path fill="none" stroke="rgb(179,179,179)" stroke-linejoin="round" d="M 3189,8171 L 3339,8171"/>
 <path fill="none" stroke="rgb(179,179,179)" stroke-linejoin="round" d="M 3189,6616 L 3339,6616"/>
 <path fill="none" stroke="rgb(179,179,179)" stroke-linejoin="round" d="M 3189,6616 L 3339,6616"/>
 <path fill="none" stroke="rgb(179,179,179)" stroke-linejoin="round" d="M 3189,5061 L 3339,5061"/>
 <path fill="none" stroke="rgb(179,179,179)" stroke-linejoin="round" d="M 3189,5061 L 3339,5061"/>
 <path fill="none" stroke="rgb(179,179,179)" stroke-linejoin="round" d="M 3189,3507 L 3339,3507"/>
 <path fill="none" stroke="rgb(179,179,179)" stroke-linejoin="round" d="M 3189,3507 L 3339,3507"/>
 <path fill="none" stroke="rgb(179,179,179)" stroke-linejoin="round" d="M 3189,1952 L 3339,1952"/>
 <path fill="none" stroke="rgb(179,179,179)" stroke-linejoin="round" d="M 3189,1952 L 3339,1952"/>
 <path fill="none" stroke="rgb(179,179,179)" stroke-linejoin="round" d="M 3189,398 L 3339,398"/>
 <path fill="none" stroke="rgb(179,179,179)" stroke-linejoin="round" d="M 3189,398 L 3339,398"/>
 <path fill="none" stroke="rgb(179,179,179)" stroke-linejoin="round" d="M 3339,8171 L 3339,398"/>
 <path fill="none" stroke="rgb(0,69,134)" stroke-width="80" stroke-linejoin="round" d="M 3408,1801 L 3477,1801 3546,1814 3616,1814 3685,1826 3754,1837 3824,1856 3893,1883 3962,1884 4031,1884 4101,1884 4170,1885 4239,1887 4309,1887 4378,1890 4447,1893 4516,1897 4586,1897 4655,1894 4724,1893 4794,1895 4863,1895 4932,1897 5001,1897 5071,1919 5140,1897 5209,1897 5279,1899 5348,1924 5417,1924 5486,2070 5556,1928 5625,1929 5694,1935 5764,1934 5833,2119 5902,1953 5971,3190 6041,3231 6110,3231 6179,3231 6249,3231 6318,3231 6387,3272 6457,3272 6526,3272 6595,3272 6664,3272 6734,3308 6803,3308 6872,3308 6942,3308 7011,3308 7080,3308 7149,3308 7219,3312 7288,3312 7357,3312 7427,3312 7496,3318 7565,3318 7634,3324 7704,3324 7773,3324 7842,3324 7912,3329 7981,3373 8050,3373 8119,3373 8189,3373 8258,3387 8327,3404 8397,3388 8466,3420 8535,3547 8604,3547 8674,3547 8743,3547 8812,3572 8882,3572 8951,3572 9020,4430 9090,4430 9159,4430 9228,4430 9297,4430 9367,4055 9436,4424 9505,4436 9575,4424 9644,4424 9713,4448 9782,4448 9852,4448 9921,4458 9990,4458 10060,4458 10129,4458 10198,4458 10267,4464 10337,4464 10406,4465 10475,4464 10545,4476 10614,4476 10683,4476 10752,4504 10822,4504 10891,4504 10960,4504 11030,4517 11099,4517 11168,4517 11237,4526 11307,4523 11376,4533 11445,4539 11515,4539 11584,4539 11653,4539 11723,4564 11792,4567 11861,4564 11930,4564 12000,4567 12069,4567 12138,4567 12208,4577 12277,4577 12346,4586 12415,4586 12485,4586 12554,4580 12623,4597 12693,4580 12762,4580 12831,4597 12900,4597 12970,4597 13039,4605 13108,4605 13178,4605 13247,4623 13316,4602 13385,4602 13455,4602 13524,4614 13593,4614 13663,4617 13732,4639 13801,4639 13870,4639 13940,4639 14009,4645 14078,4648 14148,4648 14217,4648 14286,4648 14355,4655 14425,4676 14494,4689 14563,4763 14633,4754 14702,4754 14771,4754 14841,4683 14910,4655 14979,4658 15048,4658 15118,4763 15187,4655 15256,4683 15326,4683 15395,4679 15464,4679 15533,4679 15603,4679 15672,4679 15741,4653 15811,4648 15880,4664 15949,4645 16018,4645 16088,4645 16157,4673 16226,4679 16296,4648 16365,4639 16434,4636 16503,4648 16573,4655 16642,4645 16711,4686 16781,4689 16850,4689 16919,4723 16988,4739 17058,4745 17127,4751 17196,4748 17266,4794 17335,4807 17404,4869 17474,4869 17543,4906 17612,4891 17681,4913 17751,4959 17820,4984 17889,4981 17959,4953 18028,4984 18097,4975 18166,4969 18236,4950 18305,4953 18374,4944 18444,4962 18513,4897 18582,4885 18651,4919 18721,4947 18790,4990 18859,4897 18929,4897 18998,4897 19067,4897 19136,4938 19206,4938 19275,4751 19344,4714 19414,4679 19483,4651 19552,4681 19621,4679 19691,4701 19760,4683 19829,4689 19899,4695 19968,4692 20037,4692 20107,4695 20176,4793 20245,4793 20314,4793 20384,4802 20453,4827 20522,4955 20592,4871 20661,4871 20730,4899 20799,4956 20869,4956 20938,4956 21007,5017 21077,5033 21146,5033 21215,4990 21284,4972 21354,4956 21423,5037 21492,4841 21561,4683 21630,4710 21699,4689 21768,4714 21838,4714 21907,4695 21976,4692 22046,4692 22115,4676 22184,4701 22253,4664 22323,4695 22392,4670 22461,4692 22531,4720 22600,4717 22669,4698 22739,4695 22808,4695 22877,4785 22946,4686 23016,4707 23085,4686 23154,4683 23224,4745 23293,4735 23362,4760 23431,4760 23501,4770 23570,4794 23639,4844 23709,4860 23778,4850 23847,4869 23916,4900 23986,4894 24055,4866 24124,4885 24194,4878 24263,4882 24332,4878 24401,4885 24471,4885 24540,4875 24609,4872 24679,4844 24748,4869 24817,4863 24886,4826 24956,4838 25025,4835 25094,4832 25164,4826 25233,4829 25302,4829 25371,4832 25441,4829 25510,4810 25579,4813 25649,4819 25718,4760 25787,4847 25857,4829 25926,4757 25995,4804 26064,4751 26134,4742 26203,4742 26272,4679 26342,4723 26411,4695 26480,4695 26549,4723 26619,4723 26688,4832 26757,4819 26827,4819 26896,4822 26965,4857 27034,4891 27104,4941 27173,4947 27242,5048 27312,5048 27381,5073 27450,5073 27519,5080 27589,5083 27658,5095 27727,5095 27797,5098 27866,5095 27935,5092 28004,5083 28074,5170 28143,5089 28212,5098 28282,5114 28351,5076 28420,5076 28490,5080 28559,5080 28628,5114 28697,5080 28767,5080 28836,5058 28905,5052 28975,4975 29044,4922 29113,5002 29182,4838 29252,4779 29321,4788 29390,4779 29460,4773 29529,4857 29598,4857 29667,4773 29737,4773 29806,4850 29875,4850 29945,4773 30014,4773 30083,4791 30152,4854 30222,4854 30291,4854 30360,5580 30430,5580 30499,5580 30568,5580 30637,5723 30707,5723 30776,5723 30845,5773 30915,5838 30984,5823 31053,5860 31123,5913 31192,5891 31261,5906 31330,5907 31400,5894 31469,5935 31538,5975 31608,5988 31677,5792 31746,5782 31815,5897 31885,5739 31954,5748 32023,5854 32093,5729 32162,5723 32231,5820 32300,5860 32370,5860 32439,5860 32508,5860 32578,6106 32647,6106 32716,6106 32785,6106 32855,6090 32924,6090 32993,6081 33063,5720 33132,6050 33201,6050 33270,6087 33340,6103 33409,6112 33478,6112 33548,6112 33617,6109 33686,6137 33755,6168 33825,6168 33894,6187 33963,6215 34033,6227 34102,6233 34171,6249 34241,6261 34310,6261 34379,6267 34448,6277 34518,6271 34587,6236 34656,6239 34726,6197 34795,6233 34864,6143 34933,6230 35003,6195 35072,6162 35141,6159 35211,6187 35280,6146 35349,6152 35418,6143 35488,6128 35557,6128 35626,6121 35696,6121 35765,6155 35834,6851 35903,6851 35973,6851 36042,6019 36111,6016 36181,6009 36250,6022 36319,6118 36388,6118 36458,5935 36527,5935 36596,5755 36666,6299 36735,6228 36804,6228 36874,6228 36943,7043 37012,7046 37081,7046 37151,7105 37220,7124 37289,7124 37359,7224 37428,7246 37497,7289 37566,7389 37636,7389 37705,7389 37774,7403 37844,7429 37913,7442 37982,7458 38051,7472 38121,7493 38190,7582 38259,7609 38329,7480 38398,7472 38467,7466 38536,7454 38606,7444 38675,7436 38744,7436 38814,7616 38883,7673 38952,7669 39021,7614 39091,7616 39160,7733 39229,7731 39299,7607 39368,7620 39437,7620 39507,7620 39576,7586 39645,7586 39714,7787 39784,7787 39853,7787 39922,7786 39992,7786 40061,7790 40130,7790 40199,7793 40269,7868 40338,7868 40407,7809 40477,7846 40546,7887 40615,7887 40684,7921 40754,7894 40823,7899 40892,7912 40962,7912 41031,7912 41100,7943 41169,8059 41239,7993 41308,7986 41377,7986 41447,7986 41516,8071"/>
 <text class="TextShape"><tspan class="TextParagraph" font-family="Liberation Sans, sans-serif" font-size="353px" font-weight="400"><tspan class="TextPosition" x="3246" y="8739"><tspan fill="rgb(0,0,0)" stroke="none">0</tspan></tspan></tspan></text>
 <text class="TextShape"><tspan class="TextParagraph" font-family="Liberation Sans, sans-serif" font-size="353px" font-weight="400"><tspan class="TextPosition" x="9989" y="8739"><tspan fill="rgb(0,0,0)" stroke="none">100</tspan></tspan></tspan></text>
 <text class="TextShape"><tspan class="TextParagraph" font-family="Liberation Sans, sans-serif" font-size="353px" font-weight="400"><tspan class="TextPosition" x="16918" y="8739"><tspan fill="rgb(0,0,0)" stroke="none">200</tspan></tspan></tspan></text>
 <text class="TextShape"><tspan class="TextParagraph" font-family="Liberation Sans, sans-serif" font-size="353px" font-weight="400"><tspan class="TextPosition" x="23847" y="8739"><tspan fill="rgb(0,0,0)" stroke="none">300</tspan></tspan></tspan></text>
 <text class="TextShape"><tspan class="TextParagraph" font-family="Liberation Sans, sans-serif" font-size="353px" font-weight="400"><tspan class="TextPosition" x="30776" y="8739"><tspan fill="rgb(0,0,0)" stroke="none">400</tspan></tspan></tspan></text>
 <text class="TextShape"><tspan class="TextParagraph" font-family="Liberation Sans, sans-serif" font-size="353px" font-weight="400"><tspan class="TextPosition" x="37705" y="8739"><tspan fill="rgb(0,0,0)" stroke="none">500</tspan></tspan></tspan></text>
 <text class="TextShape"><tspan class="TextParagraph" font-family="Liberation Sans, sans-serif" font-size="353px" font-weight="400"><tspan class="TextPosition" x="2428" y="8292"><tspan fill="rgb(0,0,0)" stroke="none">0.00</tspan></tspan></tspan></text>
 <text class="TextShape"><tspan class="TextParagraph" font-family="Liberation Sans, sans-serif" font-size="353px" font-weight="400"><tspan class="TextPosition" x="2057" y="6737"><tspan fill="rgb(0,0,0)" stroke="none">500.00</tspan></tspan></tspan></text>
 <text class="TextShape"><tspan class="TextParagraph" font-family="Liberation Sans, sans-serif" font-size="353px" font-weight="400"><tspan class="TextPosition" x="1872" y="5182"><tspan fill="rgb(0,0,0)" stroke="none">1000.00</tspan></tspan></tspan></text>
 <text class="TextShape"><tspan class="TextParagraph" font-family="Liberation Sans, sans-serif" font-size="353px" font-weight="400"><tspan class="TextPosition" x="1872" y="3627"><tspan fill="rgb(0,0,0)" stroke="none">1500.00</tspan></tspan></tspan></text>
 <text class="TextShape"><tspan class="TextParagraph" font-family="Liberation Sans, sans-serif" font-size="353px" font-weight="400"><tspan class="TextPosition" x="1872" y="2072"><tspan fill="rgb(0,0,0)" stroke="none">2000.00</tspan></tspan></tspan></text>
 <text class="TextShape"><tspan class="TextParagraph" font-family="Liberation Sans, sans-serif" font-size="353px" font-weight="400"><tspan class="TextPosition" x="1872" y="518"><tspan fill="rgb(0,0,0)" stroke="none">2500.00</tspan></tspan></tspan></text>
 <text class="TextShape"><tspan class="TextParagraph" font-family="Liberation Sans, sans-serif" font-size="318px" font-weight="400"><tspan class="TextPosition" x="21225" y="9406"><tspan fill="rgb(0,0,0)" stroke="none">generation</tspan></tspan></tspan></text>
 <text class="TextShape" transform="rotate(-90 837 6308)"><tspan class="TextParagraph" font-family="Liberation Sans, sans-serif" font-size="318px" font-weight="400"><tspan class="TextPosition" x="837" y="6308"><tspan fill="rgb(0,0,0)" stroke="none">best fitness in generation</tspan></tspan></tspan></text>
</svg>